<?xml version="1.0" standalone="no"?>
<!DOCTYPE svg PUBLIC "-//W3C//DTD SVG 20010904//EN"
 "http://www.w3.org/TR/2001/REC-SVG-20010904/DTD/svg10.dtd">
<svg version="1.0" xmlns="http://www.w3.org/2000/svg"
 width="1088.000000pt" height="736.000000pt" viewBox="0 0 1088.000000 736.000000"
 preserveAspectRatio="xMidYMid meet">
<metadata>
Created by potrace 1.16, written by Peter Selinger 2001-2019
</metadata>
<g transform="translate(0.000000,736.000000) scale(0.100000,-0.100000)"
fill="#000000" stroke="none">
<path d="M9750 6973 c-47 -32 -128 -90 -180 -129 -52 -39 -112 -81 -132 -93
-21 -12 -38 -27 -38 -32 0 -5 -5 -9 -10 -9 -6 0 -163 -113 -348 -252 -414
-308 -400 -298 -405 -298 -3 0 -22 -16 -43 -35 -21 -19 -43 -35 -49 -35 -6 0
-22 -12 -36 -26 -13 -14 -37 -31 -54 -38 -48 -21 -502 -366 -591 -449 -93 -87
-151 -171 -189 -272 -15 -38 -38 -93 -51 -120 -13 -28 -24 -55 -24 -62 0 -6
-21 -33 -47 -60 -42 -44 -55 -52 -110 -62 -35 -7 -69 -8 -77 -4 -7 4 -36 35
-64 69 -68 82 -120 125 -200 165 -65 33 -70 34 -192 34 -118 0 -128 -2 -183
-30 -32 -16 -79 -46 -105 -67 -94 -75 -88 -73 -191 -73 -117 0 -127 -13 -38
-53 118 -54 234 -157 295 -261 14 -25 31 -51 37 -57 20 -21 93 -216 120 -319
14 -55 39 -136 56 -180 38 -102 137 -301 167 -334 12 -14 22 -31 22 -38 0 -6
10 -20 23 -30 12 -10 38 -38 57 -63 46 -60 194 -210 206 -210 6 0 28 -18 49
-40 21 -22 44 -40 50 -40 5 0 22 -11 37 -25 15 -14 29 -25 32 -25 3 0 61 -39
128 -86 149 -105 269 -205 325 -272 60 -70 172 -239 195 -292 11 -24 23 -47
27 -50 4 -3 22 -34 39 -70 18 -36 67 -133 110 -216 42 -83 85 -169 94 -190 9
-22 40 -87 67 -146 28 -59 51 -110 51 -113 0 -2 14 -33 31 -67 33 -67 54 -117
173 -412 42 -104 76 -193 76 -198 0 -5 13 -37 29 -71 34 -73 203 -558 221
-635 6 -28 16 -54 20 -57 4 -3 14 -29 20 -57 15 -64 37 -93 57 -77 19 17 16
120 -7 233 -37 179 -165 587 -217 691 -14 28 -34 73 -45 100 -61 155 -188 448
-244 564 -36 73 -64 135 -62 137 4 4 158 -181 158 -190 0 -2 12 -18 28 -34 56
-61 112 -130 112 -139 0 -5 12 -22 28 -39 15 -16 33 -41 41 -55 7 -15 45 -66
85 -115 39 -49 145 -183 236 -299 231 -295 367 -461 423 -513 26 -25 47 -48
47 -52 0 -9 88 -100 97 -100 4 0 23 -15 43 -34 35 -34 93 -55 104 -38 6 10
-37 72 -59 85 -8 4 -15 13 -15 20 0 7 -22 37 -48 68 -26 30 -67 82 -92 114
-25 32 -57 72 -71 89 -25 29 -184 234 -355 458 -41 53 -74 101 -74 107 0 5 -5
11 -10 13 -10 3 -52 58 -141 188 -28 41 -58 79 -65 83 -8 4 -14 13 -14 19 0 6
-11 26 -25 44 -14 18 -25 36 -25 40 0 4 -24 43 -54 88 -78 118 -122 189 -147
238 -12 24 -25 45 -29 48 -4 3 -16 21 -26 42 -21 40 -100 179 -211 370 -40 69
-73 131 -73 137 0 5 -13 24 -29 42 -30 32 -51 32 -51 -1 0 -40 52 -181 115
-309 36 -74 64 -136 61 -138 -5 -6 -116 160 -116 175 0 6 -3 12 -7 12 -10 0
-30 35 -105 180 -32 63 -86 160 -118 215 -33 55 -71 129 -85 165 -14 36 -45
95 -68 132 -52 82 -250 396 -289 460 -16 26 -47 84 -69 130 -50 103 -84 142
-111 127 -17 -9 -19 -17 -13 -47 4 -21 10 -41 15 -47 5 -5 16 -46 25 -90 16
-78 50 -186 93 -292 12 -29 20 -53 17 -53 -3 0 -57 32 -120 72 -199 124 -389
334 -465 516 -48 113 -70 216 -70 321 0 111 11 159 42 188 13 11 66 35 119 51
131 43 176 63 232 106 26 20 52 36 57 36 6 0 10 3 10 8 0 4 19 32 42 62 44 59
124 219 156 315 51 151 179 353 284 450 64 59 319 245 337 245 6 0 11 3 11 8
0 4 17 16 38 27 20 10 51 29 69 42 17 13 34 23 36 23 3 0 34 18 68 40 94 58
248 141 383 205 93 45 305 162 402 223 61 39 123 84 138 101 11 11 24 21 30
21 16 0 181 173 212 222 15 23 30 45 34 48 7 5 29 45 56 100 9 20 17 61 18 95
1 57 0 60 -24 63 -17 2 -52 -15 -110 -55z"/>
<path d="M9748 6472 c-76 -43 -164 -92 -195 -110 -32 -19 -98 -55 -148 -81
-138 -74 -244 -134 -315 -179 -36 -23 -90 -55 -121 -71 -31 -17 -63 -36 -70
-43 -8 -7 -27 -19 -42 -26 -16 -7 -65 -36 -110 -65 -45 -28 -91 -57 -101 -63
-35 -19 -31 -34 6 -23 18 6 68 19 110 29 141 35 429 120 471 139 23 10 53 22
67 26 46 14 222 108 313 168 98 64 182 139 259 231 44 52 49 63 46 100 -2 27
-8 41 -18 43 -8 0 -77 -33 -152 -75z"/>
<path d="M9660 5971 c-118 -28 -217 -58 -235 -71 -5 -4 -39 -17 -75 -29 -329
-108 -535 -181 -578 -206 -15 -8 -65 -31 -112 -49 -96 -39 -117 -61 -49 -52
24 3 109 8 189 11 266 11 488 53 662 126 29 12 60 28 69 36 8 7 20 13 26 13
14 0 131 76 173 113 19 17 48 48 64 69 23 31 26 41 16 53 -15 19 -12 19 -150
-14z"/>
<path d="M9340 5500 c-25 -5 -97 -13 -160 -20 -167 -16 -472 -59 -495 -69 -11
-5 -49 -14 -85 -21 -90 -17 -101 -24 -63 -44 47 -24 167 -54 268 -67 279 -36
646 58 710 182 9 16 13 34 10 39 -7 11 -119 11 -185 0z"/>
<path d="M8390 5111 c0 -39 159 -127 294 -163 63 -17 111 -22 216 -22 172 -1
232 15 297 80 44 45 45 46 27 64 -16 15 -50 20 -204 29 -102 6 -266 13 -365
16 -99 3 -199 8 -222 11 -38 5 -43 3 -43 -15z"/>
<path d="M8290 4876 c0 -37 180 -171 273 -203 78 -27 287 -26 341 2 83 42 71
77 -35 102 -187 43 -538 113 -571 113 -5 0 -8 -6 -8 -14z"/>
<path d="M8210 4651 c0 -34 44 -104 103 -163 31 -32 62 -58 67 -58 6 0 19 -8
30 -17 10 -10 55 -31 100 -47 70 -25 91 -28 147 -23 100 10 142 48 91 81 -13
8 -43 22 -68 31 -25 9 -81 34 -125 55 -126 61 -336 160 -341 160 -2 0 -4 -9
-4 -19z"/>
<path d="M8107 4413 c-14 -13 -6 -32 38 -96 25 -37 45 -70 45 -75 0 -6 10 -16
23 -25 12 -8 33 -25 47 -38 33 -31 159 -89 193 -89 14 0 29 -4 32 -10 10 -16
51 -11 69 8 18 20 14 26 -40 63 -172 116 -280 190 -328 226 -62 45 -68 47 -79
36z"/>
<path d="M7974 4216 c-18 -46 71 -173 262 -374 179 -188 517 -489 634 -563 14
-9 37 -26 50 -37 14 -12 54 -44 90 -71 275 -213 311 -233 436 -239 95 -5 124
8 124 57 -1 52 -34 74 -215 146 -40 16 -153 84 -262 157 -106 70 -197 128
-203 128 -5 0 -10 3 -10 8 0 4 -20 18 -45 32 -57 31 -52 36 11 11 27 -11 112
-43 189 -71 77 -29 145 -56 150 -60 6 -4 60 -25 120 -46 61 -20 171 -64 245
-97 74 -32 143 -61 154 -64 10 -3 43 -21 73 -39 85 -51 201 -96 264 -101 163
-15 139 47 -51 132 -128 58 -158 71 -188 80 -58 17 -5 12 118 -12 124 -25 156
-27 385 -27 229 -1 252 1 278 18 34 23 33 52 -3 71 -16 8 -97 17 -230 24 -113
6 -234 15 -270 20 -36 5 -108 15 -160 21 -52 6 -149 24 -215 40 -66 16 -151
36 -190 45 -38 8 -79 19 -90 24 -11 5 -58 19 -105 30 -97 23 -358 104 -404
126 -17 8 -55 23 -85 35 -121 47 -390 189 -409 216 -4 5 -19 17 -34 27 -52 33
-284 235 -346 301 -45 49 -64 63 -68 52z"/>
<path d="M5711 4082 c-269 -3 -301 -9 -234 -46 29 -17 39 -29 46 -61 4 -22 7
-164 5 -316 -3 -256 -4 -279 -22 -298 -11 -12 -25 -21 -31 -21 -7 0 -18 -7
-26 -16 -10 -13 -10 -17 2 -25 8 -5 132 -9 276 -9 302 0 272 -12 298 114 11
58 13 82 5 90 -8 8 -17 4 -30 -14 -53 -70 -64 -82 -93 -97 -20 -10 -67 -18
-126 -21 -124 -6 -121 -10 -121 171 l0 139 77 -7 c99 -9 118 -17 139 -57 22
-43 21 -43 39 -28 22 18 22 212 0 230 -12 10 -18 10 -30 0 -8 -7 -15 -19 -15
-26 0 -25 -45 -42 -127 -47 l-83 -5 0 144 c0 79 3 144 8 144 62 -3 193 -21
214 -30 15 -7 39 -30 53 -51 29 -45 65 -53 65 -15 0 73 -14 147 -29 154 -9 4
-126 6 -260 4z"/>
<path d="M6143 4076 c-4 -5 6 -19 21 -31 55 -44 56 -53 56 -366 0 -250 -2
-293 -16 -314 -9 -14 -22 -25 -28 -25 -18 0 -35 -21 -29 -36 4 -11 34 -14 137
-14 140 0 176 9 142 35 -11 8 -27 15 -36 15 -34 0 -45 63 -41 238 1 58 2 62
25 62 52 0 113 -69 195 -221 30 -54 106 -124 150 -137 57 -18 131 1 131 32 0
6 -18 22 -40 35 -40 25 -84 75 -155 176 -22 31 -54 76 -72 100 l-32 42 42 19
c115 52 167 164 124 267 -20 45 -88 104 -139 118 -53 14 -427 19 -435 5z"/>
<path d="M1690 4064 c0 -8 15 -21 34 -29 46 -20 48 -36 44 -375 -3 -295 -6
-314 -56 -327 -14 -3 -22 -12 -20 -22 3 -14 25 -17 143 -22 105 -4 144 -2 154
7 22 20 6 44 -29 44 -48 0 -60 41 -60 201 l0 132 87 -7 c80 -6 90 -9 120 -38
21 -20 37 -28 49 -24 15 6 16 17 10 103 -7 102 -18 132 -42 112 -8 -6 -14 -19
-14 -29 0 -36 -35 -52 -124 -57 l-86 -6 0 146 0 146 93 -6 c107 -7 156 -27
190 -78 12 -19 30 -35 41 -35 17 0 18 6 11 82 -4 46 -9 86 -11 90 -3 5 -124 8
-270 8 -232 0 -264 -2 -264 -16z"/>
<path d="M2355 4070 c-3 -5 12 -21 35 -35 l40 -25 0 -303 c0 -166 -3 -312 -6
-324 -3 -12 -21 -31 -40 -42 -23 -14 -32 -25 -28 -36 5 -13 41 -15 269 -15
198 0 265 3 273 13 6 6 18 48 27 91 23 116 9 139 -41 60 -47 -74 -80 -89 -204
-89 l-105 0 -3 153 -3 153 78 -7 c99 -9 107 -12 135 -53 13 -19 28 -34 33 -33
6 1 10 49 10 119 0 105 -2 118 -18 121 -12 3 -22 -7 -32 -32 -17 -40 -24 -42
-132 -50 l-73 -5 0 145 0 144 73 -5 c39 -4 86 -8 104 -11 38 -6 91 -47 104
-81 6 -18 15 -23 32 -21 21 3 22 7 18 68 -2 36 -7 75 -12 87 l-9 23 -259 0
c-156 0 -262 -4 -266 -10z"/>
<path d="M3320 4013 c-13 -37 -26 -70 -30 -73 -4 -3 -16 -32 -28 -65 -126
-365 -180 -488 -229 -531 -20 -18 -33 -36 -29 -43 11 -17 230 -15 245 2 13 16
-4 37 -29 37 -9 0 -25 9 -35 20 -17 19 -18 26 -6 81 7 34 19 76 28 95 l17 34
131 0 131 0 13 -37 c8 -21 25 -62 38 -91 27 -60 22 -82 -29 -108 -30 -16 -31
-17 -13 -30 27 -20 258 -20 274 0 9 11 4 19 -24 40 -38 30 -65 77 -112 201
-50 131 -150 385 -181 460 -28 69 -29 70 -69 73 l-41 3 -22 -68z"/>
<path d="M3744 4067 c-3 -8 -4 -47 -2 -88 2 -60 6 -74 20 -77 11 -2 24 10 38
38 24 48 56 64 143 75 l57 6 -2 -332 c-3 -305 -4 -333 -20 -340 -10 -5 -26
-13 -35 -18 -10 -4 -18 -14 -18 -22 0 -11 29 -14 145 -16 154 -3 192 5 156 32
-11 8 -27 15 -36 15 -9 0 -25 9 -36 21 -18 20 -19 43 -22 341 l-3 319 78 -7
c91 -7 137 -32 155 -81 8 -21 19 -33 30 -33 15 0 18 9 18 53 0 28 -3 69 -6 90
l-7 37 -324 0 c-262 0 -325 -3 -329 -13z"/>
<path d="M4517 4073 c-9 -8 22 -43 39 -43 33 0 37 -42 38 -346 1 -283 0 -303
-18 -323 -11 -12 -25 -21 -32 -21 -7 0 -18 -9 -24 -20 -15 -27 8 -31 155 -28
98 2 120 6 120 18 0 8 -11 20 -24 26 -13 7 -28 18 -32 26 -5 7 -9 77 -9 156
l0 142 185 0 185 0 0 -129 c0 -144 -8 -176 -45 -193 -15 -7 -24 -18 -23 -27 5
-23 273 -24 273 -1 0 8 -11 20 -24 26 -13 7 -28 18 -32 26 -5 7 -9 153 -9 323
0 171 4 316 9 323 4 8 19 19 32 26 13 6 24 18 24 26 0 12 -24 15 -137 18 -117
2 -138 0 -138 -12 0 -9 12 -23 28 -33 15 -10 30 -22 34 -28 4 -5 8 -69 8 -141
l0 -131 -185 -2 -185 -1 0 135 c0 143 2 150 55 181 11 6 15 15 11 22 -8 13
-267 18 -279 5z"/>
<path d="M7843 3999 c-9 -9 3 -40 43 -123 30 -61 59 -118 64 -126 6 -8 21 -36
34 -62 45 -90 189 -248 224 -248 5 0 15 -6 21 -14 6 -8 50 -33 96 -55 99 -49
138 -86 325 -303 74 -87 138 -158 142 -158 4 0 33 -18 64 -40 63 -44 113 -58
150 -41 43 19 29 45 -81 147 -58 53 -125 123 -148 155 -61 85 -270 339 -309
376 -18 18 -60 46 -93 62 -99 48 -222 147 -372 298 -78 79 -144 143 -146 143
-2 0 -8 -5 -14 -11z"/>
<path d="M2848 2929 c-47 -14 -126 -83 -144 -126 -31 -72 -13 -173 40 -231 25
-28 125 -85 186 -107 112 -39 155 -169 83 -250 -24 -27 -32 -30 -88 -30 -55 0
-65 4 -103 35 -25 22 -51 57 -67 93 -18 39 -32 57 -44 57 -11 0 -21 -6 -23
-12 -7 -18 10 -180 19 -189 18 -15 83 -30 156 -36 162 -13 273 47 304 164 18
69 11 122 -23 180 -33 56 -69 82 -196 142 -96 44 -109 54 -123 87 -43 104 17
193 123 181 50 -5 106 -51 117 -96 11 -42 33 -62 56 -48 16 10 19 24 19 88 l0
77 -47 12 c-66 17 -200 21 -245 9z"/>
<path d="M4520 2926 c-75 -22 -132 -56 -189 -114 -77 -79 -104 -144 -109 -259
-13 -280 143 -436 418 -421 145 9 245 69 319 196 128 217 38 519 -175 586 -75
24 -205 30 -264 12z"/>
<path d="M3320 2915 c0 -9 11 -20 24 -25 49 -18 51 -33 51 -355 0 -322 -2
-337 -51 -356 -14 -5 -24 -15 -21 -22 3 -9 40 -12 140 -12 142 0 169 8 110 34
-17 8 -34 23 -37 35 -3 12 -6 81 -6 154 l0 132 180 0 180 0 0 -130 c0 -140 -9
-177 -47 -186 -14 -4 -23 -14 -23 -25 0 -18 9 -19 141 -19 128 0 140 2 137 18
-2 9 -13 18 -26 20 -42 6 -45 29 -44 354 1 170 4 318 7 328 3 10 19 22 35 25
21 5 30 13 30 26 0 19 -7 19 -142 17 -103 -2 -142 -6 -146 -16 -2 -7 10 -17
28 -23 18 -7 35 -22 41 -36 5 -13 9 -80 9 -149 l0 -124 -180 0 -180 0 0 124
c0 69 4 136 9 149 6 14 23 29 42 36 27 9 30 13 19 26 -19 22 -280 22 -280 0z"/>
<path d="M5127 2922 c-27 -5 -20 -22 18 -38 23 -9 37 -23 42 -42 10 -36 10
-566 0 -614 -6 -28 -14 -39 -37 -47 -17 -5 -30 -17 -30 -26 0 -14 20 -15 158
-13 130 3 157 6 157 18 0 8 -14 17 -34 21 -58 12 -64 26 -69 157 l-4 119 98 5
c101 5 174 27 217 66 27 24 65 103 73 149 8 51 -19 129 -59 171 -56 59 -78 66
-227 69 -74 2 -169 4 -211 6 -41 1 -83 1 -92 -1z"/>
<path d="M1687 1763 c-4 -3 -7 -19 -7 -35 l0 -28 2443 2 2442 3 0 30 0 30
-2436 3 c-1340 1 -2439 -1 -2442 -5z"/>
</g>
</svg>
